#!OML:ASF F:\VICON\USERDATA\INSTALL\rory3\rory3.ASF
:FULLY-SPECIFIED
:DEGREES
1
root -0.919541000000001 17.2067 -32.30620000000002 6.01009 -2.1114799999999954 -6.517109999999994
lfemur -25.86780000000001 7.189149999999991 -10.7525
ltibia 104.04899999999986
lfoot 7.526900000000015 -13.78739999999999
ltoes 0.375135000000018
rfemur -22.1466 3.9586900000000047 34.871500000000005
rtibia 48.9178
rfoot -22.27259999999997 -18.48460000000003
rtoes -5.583340000000013
lowerback 17.335699999999996 0.3620280000000011 3.1755000000000013
upperback 0.4907119999999976 1.40434 3.113600000000001
thorax -9.227399999999998 0.6066180000000001 1.2207300000000003
lowerneck -21.8599 -3.1588399999999988 -1.3040800000000012
upperneck 12.282199999999996 -4.181430000000001 1.7646100000000016
head 7.38848 -1.8849399999999994 0.27283200000000074
lclavicle 6.460500000000054e-16 -1.7890600000000007e-15
lhumerus -52.4405 -11.167900000000005 98.1635
lradius 97.59629999999999
lwrist 29.294700000000006
lhand -25.807700000000004 2.8377999999999997
lfingers 7.12502
lthumb 0.7315109999999989 32.8163
rclavicle 6.460500000000054e-16 -1.7890600000000007e-15
rhumerus -37.9155 10.290999999999997 -93.6859
rradius 101.15800000000002
rwrist -7.8936199999999985
rhand -21.343200000000003 39.7636
rfingers 7.12502
rthumb 5.042970000000008 9.8436
2
root -0.9356700000000011 17.4049 -30.83870000000011 5.404610000000002 0.06839350000000177 -6.80948
lfemur -32.905499999999975 6.229590000000006 -10.965499999999992
ltibia 102.32899999999994
lfoot 5.175540000000007 -11.613700000000007
ltoes -0.7664639999999938
rfemur -14.8229 2.5218000000000025 35.31819999999999
rtibia 46.0492
rfoot -20.32549999999997 -18.022300000000016
rtoes -11.478400000000029
lowerback 18.198900000000002 0.6284090000000004 3.6964100000000037
upperback -0.5074520000000007 2.0003799999999994 3.382719999999997
thorax -10.821499999999999 0.8502499999999997 1.0701499999999995
lowerneck -19.4073 -3.8572999999999995 -1.8248100000000003
upperneck 12.5906 -4.96231 1.415750000000003
head 7.102290000000001 -2.3352299999999997 0.1812159999999995
lclavicle 1.0933199999999986e-15 -1.471010000000002e-14
lhumerus -57.68650000000001 -11.765300000000005 99.9878
lradius 100.17199999999998
lwrist 31.225199999999997
lhand -25.8725 2.9792099999999984
lfingers 7.12502
lthumb 0.668898 32.9579
rclavicle 1.0933199999999986e-15 -1.471010000000002e-14
rhumerus -39.2395 10.138900000000003 -93.971
rradius 106.985
rwrist -12.046900000000004
rhand -20.699699999999996 39.9511
rfingers 7.12502
rthumb 5.664260000000004 10.0468
3
root -0.8917090000000005 17.7129 -29.236499999999943 5.43914 -0.2494600000000009 -7.2864600000000115
lfemur -36.763199999999976 6.873549999999982 -11.8874
ltibia 96.27429999999998
lfoot -0.9779200000000006 -8.21279
ltoes -14.5904
rfemur -7.81743999999998 3.2997300000000043 35.30579999999999
rtibia 42.611399999999975
rfoot -14.866200000000001 -14.6698
rtoes -18.336200000000023
lowerback 16.2871 1.7602200000000008 4.831620000000008
upperback -0.6219950000000005 3.58056 3.1084199999999997
thorax -9.75942 1.5522099999999988 -0.2317629999999994
lowerneck -18.918900000000004 -4.441859999999999 -1.95078
upperneck 13.1804 -5.742650000000001 1.4156099999999987
head 7.230459999999999 -2.7147500000000004 0.11159200000000091
lclavicle 1.9132999999999958e-14 3.379339999999997e-14
lhumerus -61.30109999999999 -11.805999999999997 100.389
lradius 101.95999999999998
lwrist 31.841100000000004
lhand -27.599400000000003 1.6659900000000003
lfingers 7.12502
lthumb -0.9990540000000034 31.6434
rclavicle 1.9132999999999958e-14 3.379339999999997e-14
rhumerus -39.09659999999998 10.053100000000002 -94.1854
rradius 111.785
rwrist -12.709000000000003
rhand -20.9904 40.9488
rfingers 7.12502
rthumb 5.383610000000008 11.037199999999999
4
root -0.8517500000000005 18.1056 -27.645999999999972 4.751789999999999 1.2618700000000007 -6.94824
lfemur -38.81260000000002 4.800040000000007 -13.748499999999984
ltibia 86.43079999999995
lfoot -0.9653889999999998 -5.68579
ltoes -8.074640000000006
rfemur -1.2175499999999815 2.0964600000000004 34.33539999999999
rtibia 38.483599999999996
rfoot -4.751420000000014 -9.724819999999996
rtoes -20.941800000000008
lowerback 16.3383 2.023019999999997 5.572830000000004
upperback -0.6125569999999989 4.019660000000001 2.552359999999999
thorax -9.67005 1.7098899999999997 -1.3541599999999994
lowerneck -21.1182 -4.956140000000001 -1.5514100000000006
upperneck 15.292899999999998 -6.528119999999999 1.2181899999999988
head 8.2965 -3.045189999999998 -0.1953520000000014
lclavicle -3.975689999999999e-15 -8.746530000000013e-15
lhumerus -63.07249999999999 -10.34389999999999 99.2459
lradius 103.02899999999998
lwrist 33.6331
lhand -25.9697 0.7585890000000024
lfingers 7.12502
lthumb 0.5750219999999979 30.7376
rclavicle -3.975689999999999e-15 -8.746530000000013e-15
rhumerus -38.3034 10.662600000000003 -94.3628
rradius 114.655
rwrist -10.848400000000002
rhand -20.168099999999995 41.3853
rfingers 7.12502
rthumb 6.177519999999994 11.4954
5
root -0.7902619999999999 18.4744 -25.965400000000024 4.374090000000001 2.7747899999999976 -6.170920000000003
lfemur -38.54960000000005 2.4539700000000066 -15.725800000000001
ltibia 74.10389999999998
lfoot -2.6981799999999927 -3.129940000000008
ltoes -11.4196
rfemur 4.519289999999977 1.4233700000000005 32.6801
rtibia 33.96589999999996
rfoot 11.84909999999999 -6.947189999999999
rtoes -15.737399999999973
lowerback 14.606700000000002 1.9733099999999983 5.555509999999995
upperback -1.28093 3.83775 2.3240699999999994
thorax -9.41161 1.622009999999999 -1.4831899999999965
lowerneck -18.302900000000005 -4.915549999999998 -1.8737399999999997
upperneck 15.1741 -6.462460000000001 1.3780300000000019
head 7.79352 -3.0451200000000003 -0.01292259999999934
lclavicle -3.319699999999994e-14 1.6697900000000032e-14
lhumerus -66.64310000000003 -6.673709999999994 98.0409
lradius 103.20299999999999
lwrist 35.91309999999999
lhand -24.6016 1.2516399999999994
lfingers 7.12502
lthumb 1.8963300000000003 31.223
rclavicle -3.319699999999994e-14 1.6697900000000032e-14
rhumerus -40.15479999999998 12.851600000000005 -94.8256
rradius 116.30199999999999
rwrist -9.388399999999999
rhand -19.6606 41.4941
rfingers 7.12502
rthumb 6.667469999999998 11.619100000000001
